<svg id="Layer_1" data-name="Layer 1" xmlns="http://www.w3.org/2000/svg" xmlns:xlink="http://www.w3.org/1999/xlink" viewBox="0 0 2312.96 1182.26"><defs><style>.cls-1{fill:#0094ef;}.cls-2{fill:url(#linear-gradient);}.cls-3{fill:url(#linear-gradient-2);}.cls-4{fill:url(#linear-gradient-3);}.cls-5{fill:url(#linear-gradient-4);}</style><linearGradient id="linear-gradient" x1="1893.86" y1="207.73" x2="1893.86" y2="207.73" gradientUnits="userSpaceOnUse"><stop offset="0" stop-color="#00e6ff"/><stop offset="1" stop-color="#0095ff"/></linearGradient><linearGradient id="linear-gradient-2" x1="670.95" y1="395.43" x2="2310.84" y2="395.43" xlink:href="#linear-gradient"/><linearGradient id="linear-gradient-3" x1="58.56" y1="573.53" x2="1565.49" y2="573.53" xlink:href="#linear-gradient"/><linearGradient id="linear-gradient-4" x1="1558.67" y1="862.87" x2="1884.11" y2="537.43" xlink:href="#linear-gradient"/></defs><path class="cls-1" d="M28.2,1097.82c0-90.45,69.06-159.06,160.84-159.06,57,0,105.59,27.18,134.11,69.06L288,1029.65C267,998,231.37,978,189,978c-67.72,0-118.95,51.68-118.95,119.85s51.23,119.85,119,119.85c42.33,0,78-20.05,98.91-51.69l35.2,21.84c-28.52,41.87-77.08,69-134.11,69C97.26,1256.87,28.2,1188.26,28.2,1097.82Z" transform="translate(-28.2 -74.61)"/><path class="cls-1" d="M593.55,1024.3v227.23H555.24v-41c-19.16,28.51-50.34,46.33-88.22,46.33-65,0-113.61-51.23-113.61-118.95S402,1019,467,1019c37.88,0,69.06,17.82,88.22,46.34v-41Zm-38.31,113.62c0-46.78-34.76-82-81.09-82-46.78,0-81.53,35.2-81.53,82s34.75,82,81.53,82C520.48,1219.89,555.24,1184.7,555.24,1137.92Z" transform="translate(-28.2 -74.61)"/><path class="cls-1" d="M782,1020.74v39.65H774.4c-48.12,0-77.52,30.3-77.52,77.53v113.61H658.57V1024.3h38.31v39.21c16.93-27.18,43.66-42.77,77.52-42.77Z" transform="translate(-28.2 -74.61)"/><path class="cls-1" d="M806,1208.31l21.84-30.74c23.17,24.5,60.15,42.77,98.9,42.77,40.55,0,72.63-20.5,72.63-50.35,0-37.87-50.35-48.56-79.75-55.24-51.68-11.14-103.81-36.09-103.81-90.45,0-51.23,45.44-85.54,109.6-85.54,43.21,0,79.75,15.59,101.13,38.76l-19.6,30.3c-16-17.82-47.67-32.52-82-32.52-38.77,0-67.29,19.6-67.29,47.67,0,33.86,42.77,46.78,73.53,53,29.84,5.79,110,25.84,110,92.22,0,52.58-49.91,88.66-114.51,88.66C880.86,1256.87,834.52,1238.16,806,1208.31Z" transform="translate(-28.2 -74.61)"/><path class="cls-1" d="M1444,1105v146.58h-38.32V1115.64c0-36.09-23.15-59.7-59.25-59.7-37,0-61.93,24-61.93,60.59v135h-38.32V1115.64c0-36.09-23.15-59.7-59.25-59.7-37,0-61.93,24-61.93,60.59v135h-38.32V1024.3H1125v30.75c16.49-23.17,42.33-36.09,74.41-36.09,35.64,0,62.82,16.49,76.18,44.55C1292.5,1035,1321.46,1019,1358,1019,1410.13,1019,1444,1052.82,1444,1105Z" transform="translate(-28.2 -74.61)"/><path class="cls-1" d="M1490.71,1137.92c0-67.73,52.13-119,121.19-119,68.61,0,120.74,51.23,120.74,119s-52.13,118.95-120.74,118.95C1542.84,1256.87,1490.71,1205.64,1490.71,1137.92Zm202.28,0c0-46.78-34.75-82-81.09-82-46.79,0-81.53,35.2-81.53,82s34.74,82,81.53,82C1658.24,1219.89,1693,1184.7,1693,1137.92Z" transform="translate(-28.2 -74.61)"/><path class="cls-1" d="M1832,1059.06V1184.7c0,24.5,13.37,35.19,36.53,35.19,12.48,0,22.28-3.56,31.63-8.46v36.09c-11.58,6.23-23.6,9.35-39.65,9.35-44.1,0-66.82-24.06-66.82-65.93V1059.06h-41V1024.3h41v-61H1832v61h68.16v34.76Z" transform="translate(-28.2 -74.61)"/><path class="cls-1" d="M1925.5,1137.92c0-67.73,52.13-119,121.18-119,68.61,0,120.75,51.23,120.75,119s-52.14,118.95-120.75,118.95C1977.63,1256.87,1925.5,1205.64,1925.5,1137.92Zm202.27,0c0-46.78-34.75-82-81.09-82-46.77,0-81.53,35.2-81.53,82s34.76,82,81.53,82C2093,1219.89,2127.77,1184.7,2127.77,1137.92Z" transform="translate(-28.2 -74.61)"/><path class="cls-1" d="M2341.16,1020.74v39.65h-7.58c-48.12,0-77.53,30.3-77.53,77.53v113.61h-38.31V1024.3h38.31v39.21c16.93-27.18,43.67-42.77,77.53-42.77Z" transform="translate(-28.2 -74.61)"/><path class="cls-2" d="M1893.86,207.73" transform="translate(-28.2 -74.61)"/><path class="cls-3" d="M2304.92,458.83c-1.2-11.06-2.44-22.49-3.48-33.93-5.85-56.93-31.94-100-77.54-128.08-88.54-54.5-250.27-50.71-494.41,11.56C1527.2,360,1301.67,442.63,1088.08,524.27c-56,21.39-112.86,36-169.06,43.35-94.28,12.36-156.55,2.48-185.1-29.39-19.36-21.62-23.58-55.37-12.56-100.32,14-57.21,51.36-107.8,121-164,203.82-164.51,475.54-168.56,667.6-143,175.68,23.4,320.42,75.9,360.6,91.43a22.2,22.2,0,0,0,16-41.42c-52.93-20.44-194.92-70.5-369.93-93.91-127.32-17-246.36-16.53-353.78,1.51C1027.51,111.27,910.3,162,814.49,239.33c-52.32,42.24-115.1,101.77-136.25,188-14.73,60-7.12,107.32,22.61,140.51,38.9,43.44,114.22,58.18,223.95,43.79,59.66-7.83,119.93-23.27,179.13-45.9,212.39-81.17,436.5-163.32,636.53-214.34,228.66-58.3,383.49-64,460.17-16.77,33.69,20.73,52.21,51.68,56.61,94.55,1.05,11.53,2.31,23.18,3.54,34.44,6.95,64,13.51,124.45-19.13,161.27-27.16,30.62-80.81,46-163.94,47h-111a22.2,22.2,0,1,0,0,44.4H2078c96.56-1.14,161-21.39,196.89-61.9C2320.56,602.83,2312.61,529.62,2304.92,458.83Z" transform="translate(-28.2 -74.61)"/><path class="cls-4" d="M1543.29,680.75H573.57c.15-2.07.32-4.14.41-6.22a213.65,213.65,0,0,0-213.24-222.3c-106.31,0-196.59,79.59-211.25,183.57l-41.6-49.35a21.08,21.08,0,0,1-4.42-18.18c13.49-59.53,19.9-88.06,22.85-101.78a5.17,5.17,0,0,1,2-3.1C298.79,338.29,620.4,315.7,683.13,312.45a17,17,0,0,0,16-17.37l-.32-10.7A16.86,16.86,0,0,0,681.13,268c-66.44,3.15-407,25.94-588,166.29L91,435.93a16.52,16.52,0,0,0-6.54,13.2,5.11,5.11,0,0,1-.1,1.25C82.26,460.52,73,502,60.15,558.49a65.74,65.74,0,0,0,13.76,56.56l72.69,86.23a29,29,0,0,1,6.16,12,212.85,212.85,0,0,0,208,165.76c4.22,0,8.48-.13,12.73-.38,90.6-5.27,167.14-69.21,192.09-153.52h977.75a22.2,22.2,0,1,0,0-44.4Zm-1023-.48a160.25,160.25,0,1,1-174.2-174.21c4.83-.42,9.63-.64,14.43-.64A160.4,160.4,0,0,1,520.32,680.27Z" transform="translate(-28.2 -74.61)"/><path class="cls-5" d="M1973.38,692a178.18,178.18,0,0,0-172.44-169.38c-1.84-.06-3.68-.08-5.53-.08h-90.35a23.73,23.73,0,0,0-23.73,23.72V583.1c-.54,0-1.09-.08-1.64-.08H1523c-11.45,0-21.7,8.22-23.08,19.59a22.41,22.41,0,0,0,22.23,25.22h157.5c.55,0,1.1-.05,1.64-.09V772.39c-.54,0-1.09-.08-1.64-.08H1523c-11.45,0-21.7,8.22-23.08,19.6a22.41,22.41,0,0,0,22.23,25.21h157.5c.55,0,1.1,0,1.64-.09v38.14a23.74,23.74,0,0,0,23.73,23.73h86.65C1894.54,878.9,1978.33,794.72,1973.38,692ZM1740.32,843.55l-1.37-.9c18.49-39,37-78,55.9-117.9h-65.2c46.83-52.72,92.51-104.15,138.2-155.57l1.25.82-56.41,118.61h64.59Z" transform="translate(-28.2 -74.61)"/></svg>