<svg width="462" height="243" viewBox="0 0 462 243" fill="none" xmlns="http://www.w3.org/2000/svg">
<g clip-path="url(#clip0_2436_1050)">
<path fill-rule="evenodd" clip-rule="evenodd" d="M121.33 176.393C62.1686 186.206 12.3116 200.78 88.4547 213.433C164.598 226.068 260.075 252.237 298.812 233.805L368.527 213.433L452.966 160.448C465.919 154.297 463.567 146.737 450.355 143.681C430.554 139.097 407.709 134.396 403.991 134.161C403.991 134.161 134.473 164.562 121.312 176.393H121.33Z" fill="black"/>
<path fill-rule="evenodd" clip-rule="evenodd" d="M287.203 118.285C275.886 117.609 270.424 117.271 259.303 116.613C245.442 115.776 232.986 136.168 231.474 162.146C229.961 188.125 239.943 209.868 253.805 210.705C265.121 211.381 270.602 211.719 281.705 212.377C295.566 213.213 308.021 192.822 309.534 166.844C311.046 140.865 301.064 119.122 287.203 118.285Z" fill="black"/>
<path fill-rule="evenodd" clip-rule="evenodd" d="M424.39 96.9499C418.18 96.5762 415.191 96.3983 409.087 96.0246C401.49 95.562 394.657 109.85 393.821 127.946C392.984 146.024 398.465 161.06 406.063 161.522C412.272 161.896 415.262 162.074 421.365 162.448C428.963 162.91 435.795 148.622 436.632 130.526C437.468 112.448 431.988 97.4125 424.39 96.9499Z" fill="black"/>
<path fill-rule="evenodd" clip-rule="evenodd" d="M117.755 128.748C111.545 127.396 108.556 126.737 102.453 125.403C94.8548 123.73 88.0222 136.933 87.1859 154.886C86.3496 172.84 91.83 188.747 99.4278 190.402C105.638 191.754 108.627 192.413 114.73 193.747C122.328 195.42 129.161 182.217 129.997 164.264C130.833 146.31 125.353 130.42 117.755 128.748Z" fill="black"/>
<path fill-rule="evenodd" clip-rule="evenodd" d="M34.8368 148.712C34.0895 140.153 33.787 129.548 35.9044 121.808C37.4346 116.221 40.4595 110.402 44.3029 105.812C44.7655 100.829 46.2424 95.0465 47.8082 90.7405C49.8723 85.0465 52.9505 79.4772 57.8437 75.7584C60.495 73.7477 63.769 72.431 66.8472 71.2032C70.7796 69.6374 74.7653 68.2317 78.7511 66.8438C89.3738 63.1606 100.103 59.762 110.833 56.3991C124.783 52.0397 138.768 47.787 152.772 43.6412C190.458 12.7517 216.917 1.31052 266.668 0.776721C305.102 0.367471 358.197 3.44574 391.364 24.2819C401.097 30.4028 411.453 38.3387 419.069 46.9685C421.257 49.4596 424.229 51.7194 426.916 53.6589C430.065 55.9364 433.321 58.0361 436.667 60.0289C438.535 61.1499 440.457 62.3065 442.432 63.2496C449.887 66.8083 451.577 74.5306 452.698 81.8793C453.57 87.5198 454.086 93.2137 454.567 98.9076C455.189 106.256 454.78 113.73 455.634 121.149C457.467 137.075 449.638 142.68 436.933 142.964L434.122 97.5731V87.2173L68.6978 114.05C55.584 111.078 54.0537 168.284 51.7584 170.58C33.4845 169.494 30.0326 155.455 34.8368 148.712Z" fill="white"/>
<path fill-rule="evenodd" clip-rule="evenodd" d="M156.277 50.207C192.682 20.1539 217.433 8.58813 266.756 8.05432C302.753 7.66287 355.581 10.4031 387.503 30.4563C396.364 36.0256 406.631 43.8726 413.606 51.7906C416.132 54.6554 419.549 57.3422 422.645 59.5664C425.954 61.9685 429.424 64.2105 432.947 66.2923C434.958 67.5023 437.182 68.819 439.3 69.8154C443.961 72.0396 444.815 78.5342 445.509 82.9826C446.346 88.4452 446.862 94.0323 447.324 99.5127C447.751 104.548 448.107 109.584 448.445 114.619C448.623 117.377 448.73 120.313 449.05 123.053C449.531 127.253 448.552 132.217 446.15 135.598L445.705 136.238L428.57 150.313V122.075C428.57 118.125 428.321 113.854 427.502 109.94C427.289 108.943 426.613 106.292 425.848 104.993C425.563 105.135 425.26 105.313 425.083 105.42C421.951 107.395 419.317 118.747 418.588 122.306C417.093 129.726 416.097 137.929 415.688 145.58L415.474 149.637L302.237 188.373L303.464 177.768C304.888 165.455 305.76 141.861 301.08 130.028C299.71 126.594 297.29 122.911 293.607 121.666C285.351 118.89 277.504 129.512 274.301 135.242C271.899 139.548 270.19 144.317 268.909 149.139C266.4 158.658 265.511 168.729 265.048 178.658C264.87 182.43 264.781 186.22 264.532 189.992C264.319 193.106 264.052 196.861 261.845 199.174C256.81 204.405 238.127 203.978 231.33 203.836C220.031 203.604 208.607 202.626 197.308 201.38C180.245 199.512 163.181 196.914 146.206 193.996C130.957 191.363 53.0747 178.106 41.2242 165.562C36.5268 160.58 38.6086 154.904 42.3986 150.989C41.5089 142.431 41.0107 130.811 42.9502 123.694C44.3559 118.552 47.4875 112.769 51.4733 108.748V108.659C51.4733 104.139 53.1814 97.3241 54.6761 93.196C56.2419 88.8722 58.5907 84.3349 62.2739 81.5413C64.2134 80.0645 67.2917 78.8723 69.5692 77.947C73.377 76.4346 77.2738 75.0467 81.1528 73.7122C91.7043 70.0645 102.363 66.666 113.039 63.3386C127.416 58.8369 141.846 54.4775 156.295 50.1892L156.277 50.207Z" fill="black"/>
<path fill-rule="evenodd" clip-rule="evenodd" d="M159.587 56.0074C139.017 62.0928 72.5054 82.057 66.2955 86.7545C60.1034 91.452 57.8436 106.256 57.8436 109.068V111.879C57.8436 111.879 51.5625 116.701 49.107 125.722C46.6515 134.743 49.107 153.907 49.107 153.907C49.107 153.907 42.7726 158.177 45.7263 161.309C48.68 164.441 66.5802 173.836 146.9 187.697C227.22 201.558 254.283 197.537 257.095 194.601C259.906 191.665 255.689 155.064 268.643 131.879C281.614 108.712 300.208 110.954 306.97 127.982C313.731 145.01 309.781 178.871 309.781 178.871L409.264 144.85C409.264 144.85 407.183 127.679 410.154 113.374C411.542 106.701 415.35 98.9964 418.57 96.968C424.745 93.0534 433.624 96.968 436.061 102.875C440.706 114.174 439.531 121.879 439.602 132.911L440.83 131.665C440.83 131.665 443.232 128.284 442.663 123.391C442.093 118.498 440.207 77.1638 436.809 75.5446C433.428 73.9254 416.524 64.4593 408.909 55.8295C403.713 49.9398 389.158 36.7549 369.959 28.0183C345.724 16.9864 292.308 14.1572 267.184 14.4241C219.64 14.9401 196.241 25.5628 159.569 55.9718L159.587 56.0074Z" fill="#3B79FF"/>
<path fill-rule="evenodd" clip-rule="evenodd" d="M77.4177 102.627C76.7237 103.374 75.923 107.84 75.8696 113.303C75.8518 115.83 77.6134 117.645 79.8909 118.25C100.745 123.837 139.517 128.819 163.787 130.972C168.093 131.346 172.292 132.2 174.321 127.876C176.42 123.392 176.509 119.922 173.983 117.467C172.168 115.687 141.955 112.04 116.973 108.552C94.9086 105.474 77.649 102.396 77.4177 102.645V102.627ZM75.1935 119.691C75.1401 119.21 93.8232 127.306 120.478 129.851C131.296 130.883 152.809 134.691 166.883 133.712C171.687 133.392 171.67 133.036 168.235 137.253C159.944 147.431 151.065 147.965 131.51 145.954C110.407 143.783 96.3499 140.58 84.4461 136.239C79.0191 134.264 76.0654 126.524 75.1935 119.673V119.691Z" fill="#1560B7"/>
<path fill-rule="evenodd" clip-rule="evenodd" d="M48.3063 130.419C47.3455 140.117 49.107 153.907 49.107 153.907C49.107 153.907 42.7726 158.177 45.7263 161.309C48.68 164.441 66.5802 173.836 146.9 187.697C227.22 201.558 254.283 197.536 257.095 194.6C259.906 191.665 255.689 155.063 268.643 131.879C281.614 108.711 300.208 110.953 306.97 127.982C313.731 145.01 309.781 178.871 309.781 178.871L409.264 144.85C409.264 144.85 408.197 105.989 418.57 99.9215C428.766 93.9607 433.553 101.897 436.061 111.167C438.997 121.968 437.396 135.562 437.663 135.259L440.83 131.665C440.83 131.665 443.232 128.284 442.663 123.391C442.218 119.494 440.919 92.4838 438.695 80.8291C438.25 82.8753 437.681 84.9928 436.969 86.8255C434.709 92.6084 402.592 94.9037 402.592 94.9037L307.895 116.825C307.895 116.825 301.418 106.292 289.016 107.519C276.614 108.747 267.878 127.377 260.547 141.309C254.782 152.288 239.034 158.64 229.035 160.063C239.373 167.572 248.269 189.458 243.074 190.775C237.718 192.145 206.437 189.423 203.892 186.451C201.348 183.48 197.967 163.266 196.277 162.608C194.586 161.949 169.782 159.049 169.782 159.049C175.601 157.768 182.06 156.683 188.554 155.953C175.868 156.167 164.409 157.377 162.754 158.248C159.373 160.028 145.281 157.199 145.281 157.199C145.281 157.199 73.9823 146.985 70.3168 144.227C66.7937 141.576 53.0928 132.306 48.3063 130.384V130.419Z" fill="#1560B7"/>
<path fill-rule="evenodd" clip-rule="evenodd" d="M48.6986 127.592C46.9548 137.147 47.9868 152.663 47.9868 152.663C48.3605 154.246 51.7768 155.812 54.0366 156.328C56.4209 156.862 58.7697 157.52 59.4814 155.759C60.7269 152.627 62.0615 146.844 62.4351 142.876C62.9867 137.289 62.5775 135.848 48.6986 127.592Z" fill="black"/>
<path fill-rule="evenodd" clip-rule="evenodd" d="M66.296 86.7542C60.1039 91.4517 57.8442 106.256 57.8442 109.067V111.879C57.8442 111.879 57.7196 111.968 57.4883 112.163C58.3957 113.124 64.8192 116.879 68.3067 118.622C69.1964 119.067 70.2818 118.302 70.353 117.608C70.869 112.75 70.4419 103.622 70.4419 102.217C70.4419 101.167 68.0576 85.3841 66.2783 86.7364L66.296 86.7542Z" fill="black"/>
<path fill-rule="evenodd" clip-rule="evenodd" d="M220.85 20.1184C199.675 26.097 182.167 37.2891 159.676 55.9366L310.297 69.3707C310.297 69.3707 327.895 26.8087 326.65 24.976C325.404 23.1433 253.038 21.0614 220.867 20.1006L220.85 20.1184Z" fill="black"/>
<path fill-rule="evenodd" clip-rule="evenodd" d="M173.751 43.5519C167.132 39.3526 157.541 40.3135 154.303 51.5412C151.064 62.751 164.73 53.712 173.751 43.5519Z" fill="black"/>
<path fill-rule="evenodd" clip-rule="evenodd" d="M201.793 112.449C189.391 120.723 174.177 137.84 187.416 136.95C200.654 136.061 238.714 134.69 245.76 127.502C252.807 120.313 262.664 104.851 256.187 103.605C249.711 102.36 215.316 108.196 201.793 112.449Z" fill="black"/>
<path fill-rule="evenodd" clip-rule="evenodd" d="M75.8164 100.047C75.0869 100.794 74.2506 105.26 74.215 110.723C74.1972 113.25 76.0299 115.065 78.3964 115.67C100.122 121.257 140.513 126.239 165.78 128.392C170.264 128.766 174.641 129.62 176.741 125.296C178.929 120.812 179.018 117.342 176.403 114.887C174.517 113.107 143.04 109.46 117.026 105.972C94.0369 102.894 76.0655 99.8156 75.8164 100.065V100.047ZM74.6242 117.769C74.5531 117.289 92.9159 124.744 120.691 127.289C131.955 128.321 154.375 132.128 169.036 131.15C174.036 130.83 174.018 130.474 170.442 134.691C161.794 144.869 152.56 145.402 132.186 143.392C110.193 141.221 96.1187 137.591 83.7167 133.249C78.0762 131.274 75.5317 124.62 74.642 117.769H74.6242Z" fill="black"/>
<path fill-rule="evenodd" clip-rule="evenodd" d="M164.178 159.085C184.196 154.654 211.811 152.644 222.523 159.494C233.234 166.345 242.807 189.458 237.451 190.828C232.096 192.199 200.815 189.476 198.27 186.505C195.726 183.533 192.345 163.32 190.655 162.661C188.964 162.003 164.16 159.103 164.16 159.103L164.178 159.085Z" fill="black"/>
<path fill-rule="evenodd" clip-rule="evenodd" d="M216.884 167.609C208.414 167.236 204.998 166.648 197.685 166.417C189.411 166.15 177.934 166.328 181.386 167.734C183.521 168.606 191.546 169.851 196.671 170.403C207.098 171.506 216.51 171.008 216.902 167.627L216.884 167.609Z" fill="black"/>
<path fill-rule="evenodd" clip-rule="evenodd" d="M222.239 177.786C204.196 176.986 180.246 175.26 186.723 177.911C193.2 180.562 221.67 182.84 222.239 177.786Z" fill="black"/>
<path fill-rule="evenodd" clip-rule="evenodd" d="M64.9785 160.153C71.74 152.111 72.3094 147.057 81.8823 148.214C91.4552 149.353 153.465 160.136 153.465 160.136C153.465 160.136 161.081 162.289 167.842 171.15L174.604 180.011C174.604 180.011 134.871 180.438 64.9785 160.171V160.153Z" fill="black"/>
<path fill-rule="evenodd" clip-rule="evenodd" d="M320.173 154.939L393.731 129.779L384.425 143.587L319.604 165.9L320.173 154.939Z" fill="black"/>
<path fill-rule="evenodd" clip-rule="evenodd" d="M438.998 81.4171C415.172 73.8548 330.991 89.3885 274.568 101.559L271.988 101.88C298.216 90.8476 404.941 74.5666 430.012 71.8086C433.197 73.6947 435.742 75.0648 436.845 75.5986C437.343 75.8299 437.823 76.9687 438.25 78.7125L438.998 81.4171Z" fill="black"/>
<path fill-rule="evenodd" clip-rule="evenodd" d="M334.62 36.0784C329.443 49.6548 323.802 71.7365 325.225 71.8254C326.916 71.9322 399.353 60.7935 400.474 59.1565C402.894 55.669 386.399 43.7474 377.289 38.5517C361.862 29.7617 348.072 27.6087 341.275 26.4699C337.699 25.8649 336.667 30.7403 334.62 36.0784Z" fill="black"/>
<path fill-rule="evenodd" clip-rule="evenodd" d="M340.172 54.1212C336.507 54.4593 332.557 58.1781 332.557 68.3204C332.557 70.1176 332.574 71.5944 332.628 72.84C333.09 85.9537 344.621 84.1032 343.802 71.8257C343.802 71.8257 361.88 71.2385 364.265 68.9788C365.475 67.84 366.596 66.3631 362.539 61.9859C358.553 57.6977 349.799 53.0358 340.172 54.1212Z" fill="black"/>
<path fill-rule="evenodd" clip-rule="evenodd" d="M320.103 150.474L407.255 123.819L388.803 135.883L319.533 165.243L320.103 150.474Z" fill="black"/>
<path fill-rule="evenodd" clip-rule="evenodd" d="M81.9193 80.3664L80.0866 81.9144C75.1934 87.6439 63.4853 97.8929 76.3855 99.7434C94.873 102.395 128.449 107.323 154.09 110.74C168.556 112.679 177.986 115.01 186.901 114.049C194.588 113.231 217.417 106.558 241.651 98.8538C269.569 89.9748 299.231 79.7792 309.693 75.5799C317.861 72.3059 311.757 70.0284 302.772 68.4447L308.857 67.0391C308.857 67.0391 322.54 70.8825 315.583 76.3984C313.181 78.3023 276.598 91.1492 242.772 101.914C218.377 109.672 195.335 116.398 187.435 117.234C177.221 118.32 169.392 116.861 152.702 114.441C128.289 110.918 93.574 105.402 76.1542 102.893C60.4426 100.633 69.0191 90.0638 74.9977 82.8575C77.0439 82.0745 79.3748 81.2382 81.9371 80.3486L81.9193 80.3664Z" fill="black"/>
<path fill-rule="evenodd" clip-rule="evenodd" d="M288.626 129.139C284 128.854 279.516 132.537 275.993 138.694C272.292 145.153 269.747 154.281 269.214 164.494C269.142 165.758 269.125 167.056 269.125 168.409C269.125 177.572 270.833 185.811 273.698 191.878C276.402 197.608 280.103 201.309 284.249 201.771C284.338 201.771 284.48 201.789 284.676 201.807C289.302 202.092 293.786 198.409 297.31 192.252C301.011 185.793 303.555 176.665 304.089 166.451C304.16 165.188 304.196 163.889 304.196 162.537C304.196 153.373 302.487 145.135 299.623 139.067C296.918 133.338 293.217 129.637 289.071 129.174C288.982 129.174 288.84 129.156 288.644 129.139H288.626ZM273.199 136.985C277.292 129.833 282.754 125.58 288.626 125.936C288.769 125.936 288.964 125.954 289.214 125.989C294.623 126.594 299.267 131.025 302.487 137.84C305.548 144.334 307.381 153.071 307.381 162.715C307.381 163.996 307.345 165.366 307.274 166.79C306.704 177.501 304.018 187.11 300.103 193.942C296.011 201.095 290.548 205.348 284.676 204.992C284.534 204.992 284.338 204.957 284.089 204.939C278.68 204.334 274.036 199.903 270.815 193.088C267.755 186.594 265.922 177.857 265.922 168.213C265.922 166.932 265.957 165.562 266.029 164.138C266.58 153.427 269.285 143.818 273.199 136.985Z" fill="white"/>
<path fill-rule="evenodd" clip-rule="evenodd" d="M288.022 155.669C286.83 155.598 285.62 156.523 284.623 158.054C283.467 159.851 282.666 162.395 282.506 165.296C282.488 165.634 282.47 166.007 282.47 166.417C282.47 168.979 282.986 171.256 283.858 172.911C284.588 174.299 285.531 175.207 286.545 175.313H286.669C287.862 175.384 289.072 174.477 290.068 172.929C291.225 171.132 292.025 168.587 292.185 165.687C292.185 165.349 292.221 164.975 292.221 164.566C292.221 162.004 291.705 159.726 290.833 158.071C290.104 156.684 289.161 155.776 288.146 155.669H288.022ZM281.919 156.239C283.502 153.783 285.655 152.342 288.022 152.484C288.075 152.484 288.182 152.484 288.324 152.52C290.531 152.787 292.381 154.353 293.644 156.755C294.765 158.89 295.424 161.701 295.424 164.797C295.424 165.171 295.424 165.616 295.388 166.078C295.193 169.495 294.214 172.573 292.79 174.779C291.207 177.235 289.054 178.676 286.687 178.534C286.634 178.534 286.527 178.534 286.385 178.498C284.178 178.231 282.328 176.666 281.065 174.263C279.944 172.128 279.285 169.317 279.285 166.221C279.285 165.847 279.285 165.402 279.321 164.94C279.516 161.523 280.495 158.445 281.919 156.239Z" fill="white"/>
<path fill-rule="evenodd" clip-rule="evenodd" d="M284.622 157.662C282.611 157.537 280.814 160.758 280.618 164.85C280.405 168.943 281.864 172.359 283.875 172.484C285.885 172.608 287.682 169.388 287.878 165.295C288.092 161.203 286.633 157.786 284.622 157.662Z" fill="white"/>
<path fill-rule="evenodd" clip-rule="evenodd" d="M284.623 159.264C284.249 159.246 283.786 159.726 283.341 160.527C282.719 161.648 282.292 163.232 282.203 165.047C282.203 165.224 282.203 165.456 282.203 165.74C282.203 167.342 282.487 168.765 282.95 169.78C283.252 170.456 283.59 170.865 283.857 170.901C284.231 170.918 284.694 170.438 285.139 169.637C285.761 168.516 286.188 166.933 286.277 165.118C286.277 164.94 286.277 164.708 286.277 164.424C286.277 162.822 285.993 161.399 285.53 160.385C285.21 159.708 284.889 159.299 284.605 159.264H284.623ZM280.548 158.837C281.562 157.039 282.986 155.972 284.623 156.061H284.8C286.348 156.257 287.612 157.413 288.43 159.192C289.089 160.634 289.498 162.538 289.498 164.602C289.498 164.833 289.498 165.118 289.48 165.456C289.356 167.751 288.786 169.815 287.968 171.292C286.953 173.089 285.512 174.157 283.893 174.068H283.715C282.167 173.872 280.904 172.715 280.085 170.936C279.427 169.495 279.018 167.591 279.018 165.527C279.018 165.296 279.018 165.011 279.053 164.673C279.178 162.395 279.747 160.331 280.566 158.837H280.548Z" fill="white"/>
<path fill-rule="evenodd" clip-rule="evenodd" d="M425.154 104.477C422.61 104.317 420.154 106.915 418.233 111.239C416.204 115.776 414.816 122.128 414.514 129.246C414.478 130.135 414.461 131.025 414.461 131.968C414.461 138.338 415.404 144.068 416.969 148.249C418.446 152.217 420.475 154.744 422.752 155.028C422.806 155.028 422.877 155.028 422.984 155.046C425.528 155.206 427.984 152.608 429.905 148.285C431.934 143.747 433.322 137.395 433.624 130.278C433.66 129.388 433.677 128.498 433.677 127.555C433.677 121.185 432.734 115.456 431.169 111.274C429.692 107.306 427.663 104.78 425.386 104.495C425.332 104.495 425.261 104.495 425.154 104.477ZM416.703 110.082C418.944 105.064 421.934 102.075 425.154 102.271C425.226 102.271 425.332 102.271 425.475 102.306C428.446 102.68 430.991 105.723 432.752 110.438C434.425 114.922 435.439 120.989 435.439 127.698C435.439 128.587 435.421 129.53 435.386 130.527C435.083 137.982 433.606 144.69 431.453 149.477C429.211 154.495 426.222 157.484 423.001 157.288C422.93 157.288 422.823 157.288 422.681 157.253C419.71 156.879 417.165 153.836 415.404 149.121C413.731 144.637 412.717 138.569 412.717 131.861C412.717 130.972 412.735 130.029 412.77 129.032C413.073 121.577 414.55 114.869 416.703 110.082Z" fill="white"/>
<path fill-rule="evenodd" clip-rule="evenodd" d="M424.833 122.946C424.175 122.911 423.517 123.551 422.965 124.637C422.324 125.9 421.897 127.68 421.808 129.69C421.808 129.921 421.808 130.188 421.808 130.473C421.808 132.252 422.093 133.836 422.574 134.993C422.965 135.953 423.481 136.576 424.05 136.647H424.122C424.78 136.683 425.438 136.042 425.972 134.957C426.613 133.694 427.04 131.914 427.146 129.904C427.146 129.672 427.146 129.405 427.146 129.121C427.146 127.341 426.862 125.758 426.381 124.601C425.99 123.64 425.474 123.018 424.904 122.946H424.833ZM421.488 123.391C422.36 121.665 423.534 120.651 424.833 120.722C424.869 120.722 424.922 120.722 424.993 120.74C426.203 120.9 427.218 121.986 427.912 123.64C428.517 125.117 428.89 127.075 428.89 129.21C428.89 129.477 428.89 129.779 428.872 130.099C428.766 132.484 428.232 134.637 427.449 136.185C426.577 137.893 425.403 138.925 424.104 138.854C424.068 138.854 424.015 138.854 423.944 138.836C422.734 138.676 421.719 137.59 421.026 135.936C420.421 134.459 420.047 132.502 420.047 130.366C420.047 130.099 420.047 129.797 420.065 129.477C420.171 127.092 420.705 124.939 421.488 123.409V123.391Z" fill="white"/>
<path fill-rule="evenodd" clip-rule="evenodd" d="M422.966 124.352C421.863 124.281 420.884 126.541 420.76 129.388C420.653 132.235 421.436 134.601 422.539 134.672C423.642 134.744 424.621 132.484 424.745 129.637C424.852 126.79 424.069 124.423 422.966 124.352Z" fill="white"/>
<path fill-rule="evenodd" clip-rule="evenodd" d="M422.967 125.474C422.771 125.474 422.522 125.794 422.273 126.364C421.935 127.147 421.704 128.25 421.65 129.513C421.65 129.638 421.65 129.798 421.65 129.993C421.65 131.114 421.81 132.093 422.059 132.787C422.237 133.25 422.415 133.534 422.558 133.57C422.753 133.57 423.02 133.25 423.252 132.68C423.59 131.897 423.821 130.794 423.874 129.531C423.874 129.406 423.874 129.246 423.874 129.05C423.874 127.929 423.714 126.951 423.465 126.257C423.287 125.794 423.109 125.51 422.967 125.492V125.474ZM420.725 125.207C421.277 123.944 422.059 123.196 422.967 123.25H423.056C423.91 123.374 424.604 124.157 425.049 125.385C425.405 126.381 425.636 127.698 425.636 129.139C425.636 129.3 425.636 129.495 425.636 129.744C425.565 131.328 425.262 132.769 424.8 133.819C424.248 135.082 423.465 135.848 422.558 135.776H422.469C421.615 135.652 420.921 134.869 420.476 133.641C420.102 132.645 419.889 131.328 419.889 129.887C419.889 129.727 419.889 129.531 419.889 129.282C419.96 127.698 420.262 126.257 420.725 125.207Z" fill="white"/>
<path fill-rule="evenodd" clip-rule="evenodd" d="M47.7736 126.559C59.1614 132.697 64.7486 137.359 73.2361 145.473C62.1685 143.765 57.8625 141.825 47.4355 138.729L47.7736 126.559Z" fill="black"/>
<path fill-rule="evenodd" clip-rule="evenodd" d="M49.5888 142.359C53.4855 143.694 55.1047 143.925 58.4677 145.153C62.2755 146.523 67.5068 148.818 65.8164 149.156C64.7844 149.37 61.0122 148.729 58.6278 148.142C53.7702 146.95 49.5176 144.815 49.5888 142.359Z" fill="black"/>
<path fill-rule="evenodd" clip-rule="evenodd" d="M48.3622 147.662C56.6718 150.491 67.7571 153.801 64.5898 154.441C61.4226 155.082 48.2377 151.31 48.3622 147.662Z" fill="black"/>
<path fill-rule="evenodd" clip-rule="evenodd" d="M253.537 111.097C238.982 112.342 211.74 111.613 200.299 120.314C195.602 123.89 190.157 129.709 185.904 133.979C189.89 128.036 193.378 123.392 198.929 118.677C210.619 108.748 237.754 108.712 252.986 106.986L253.537 111.097Z" fill="white"/>
<path fill-rule="evenodd" clip-rule="evenodd" d="M251.865 107.058C259.765 106.435 245.637 123.463 242.986 125.652C240.922 127.36 234.872 128.25 231.99 128.748L227.203 129.602L228.039 125.225C228.093 124.958 228.822 124.833 229.801 124.656C238.253 123.232 238.929 113.766 233.805 112.556C233.805 112.556 229.071 111.951 228.965 111.951L229.463 109.994L251.865 107.04V107.058Z" fill="white"/>
<path fill-rule="evenodd" clip-rule="evenodd" d="M62.3984 91.7539C64.3201 93.8179 65.3166 96.2734 65.9215 99.2805C66.6689 103.053 67.345 107.341 68.2347 113.693C68.2347 108.818 68.3237 107.786 68.0034 103.017C67.5585 96.398 66.5087 92.1275 64.1066 89.0137C63.4838 89.8322 62.9144 90.7752 62.3984 91.7717V91.7539Z" fill="white"/>
<path fill-rule="evenodd" clip-rule="evenodd" d="M57.8457 109.21L57.8991 109.263C59.1446 110.367 62.7745 112.911 62.8813 112.769C62.988 112.608 62.5788 112.128 62.8635 109.121C62.8813 108.854 62.472 108.48 61.9204 108C57.4365 104.068 61.44 91.4698 65.7994 98.089C66.4755 99.1032 67.4542 100.313 67.4898 100.313L66.8314 94.993L62.5254 91.541C59.1624 97.8399 57.8457 106.932 57.8457 109.068V109.192V109.21Z" fill="white"/>
<path fill-rule="evenodd" clip-rule="evenodd" d="M336.598 55.6871C341.633 55.5625 346.437 56.9682 351.936 59.3881C356.651 61.4699 358.733 64.1212 359.658 66.6834C360.103 67.9468 360.281 69.1745 360.352 70.3133C362.256 69.9574 363.715 69.5126 364.284 68.9788C365.049 68.267 365.761 67.413 365.192 65.7938C364.854 64.8329 364.071 63.6052 362.558 61.9859C358.573 57.6977 349.818 53.0358 340.192 54.1212C338.982 54.228 337.736 54.7262 336.615 55.6871H336.598Z" fill="white"/>
<path fill-rule="evenodd" clip-rule="evenodd" d="M207.914 52.6259C192.896 48.9605 201.188 38.4089 232.7 22.8219C231.294 22.7863 213.483 22.4304 211.9 23.0176C197.38 28.409 184.088 36.6296 168.875 48.4978C166.526 50.6686 164.106 52.6081 161.936 54.0494C161.188 54.6544 160.441 55.2771 159.676 55.9177L276.97 66.3803C255.903 63.3198 222.932 56.2736 207.914 52.6081V52.6259Z" fill="white"/>
<path fill-rule="evenodd" clip-rule="evenodd" d="M152.773 52.8761C200.548 55.5807 254.978 60.1537 302.273 67.4668C306.295 68.0896 309.764 68.5166 313.59 69.7799L311.49 69.6198C258.021 64.8156 206.402 59.6555 152.559 57.3601C151.331 57.3067 150.371 56.2569 150.424 55.0114C150.477 53.7836 151.527 52.8228 152.773 52.8761Z" fill="black"/>
<path fill-rule="evenodd" clip-rule="evenodd" d="M300.209 75.0468C290.636 78.7122 195.513 110.135 181.42 110.135C173.787 110.135 105.905 101.595 76.9014 96.915C72.542 96.221 71.2252 93.8723 71.3498 92.6623C69.6594 96.0075 70.1576 98.8544 76.3676 99.7441C86.492 101.203 101.136 103.321 116.527 105.527C120.228 106.061 123.983 106.595 127.719 107.111C136.812 108.392 145.851 109.655 154.072 110.74C168.538 112.68 177.968 115.011 186.883 114.05C194.57 113.232 217.399 106.559 241.633 98.8544C269.551 89.9755 299.213 79.7799 309.675 75.5806C316.099 73.0183 313.697 71.0611 308.038 69.5664C308.412 70.9009 306.099 72.787 300.209 75.029V75.0468Z" fill="white"/>
<path fill-rule="evenodd" clip-rule="evenodd" d="M39.0903 154.602C35.2291 162.467 41.0831 167.556 49.2503 170.937C65.5313 177.662 90.6023 182.307 116.403 187.004C147.043 192.591 178.911 197.929 200.833 202.057L195.815 201.684C154.623 197.36 98.1823 189.139 57.6132 178.677C41.7415 174.584 27.0975 167.236 34.3394 151.809L39.0725 154.602H39.0903Z" fill="white"/>
<path fill-rule="evenodd" clip-rule="evenodd" d="M310.228 185.17L404.693 154.708L308.199 191.629L310.228 185.17Z" fill="white"/>
<path fill-rule="evenodd" clip-rule="evenodd" d="M305.547 113.498C326.739 107.395 401.56 91.452 419.728 92.2349C379.212 101.594 343.287 110.793 310.298 121.754L305.547 113.48V113.498Z" fill="white"/>
</g>
<path d="M60.4746 175.428L89.612 129.696H104.769L115.613 175.428H100.261L92.8785 136.817H98.8889L76.7419 175.428H60.4746ZM73.9327 167.457L80.0737 156.351H101.11L102.809 167.457H73.9327Z" fill="white"/>
<path fill-rule="evenodd" clip-rule="evenodd" d="M58.4709 164.066L56.1986 175.428H51.2321L46.2656 183.222H81.2569L85.8287 175.252H92.2913L93.8152 183.222H125.473L110.931 121.901H85.3359L58.4709 164.066ZM98.7369 167.457L100.261 175.428H115.614L104.769 129.696H89.612L60.4747 175.428H76.7419L81.3137 167.457H98.7369ZM96.6134 156.351L94.3811 144.676L87.6843 156.351H96.6134Z" fill="black"/>
<path d="M48.316 129.696H63.734L54.5877 175.428H39.1698L48.316 129.696ZM24.9277 175.428H9.50977L18.656 129.696H34.074L24.9277 175.428ZM43.5469 158.572H27.2796L29.8275 145.898H46.0948L43.5469 158.572Z" fill="white"/>
<path fill-rule="evenodd" clip-rule="evenodd" d="M73.2407 121.901L64.216 167.025L58.8623 175.428H62.5354L60.9765 183.222H0L12.2642 121.901H73.2407ZM34.0724 129.696H18.6545L9.50821 175.428H24.9262L28.2972 158.572H42.5393L39.1682 175.428H54.5862L63.7324 129.696H48.3145L45.0741 145.898H30.8321L34.0724 129.696Z" fill="black"/>
<path d="M356.493 187.92H373.805L378.117 198.699L387.133 187.92H405.295L385.957 209.74L397.128 233.717H379.358L374.197 221.892L364.071 233.717H345.975L366.88 210.459L356.493 187.92Z" fill="white"/>
<path fill-rule="evenodd" clip-rule="evenodd" d="M344.827 181.231C344.589 180.714 344.966 180.125 345.534 180.125H378.554C378.873 180.125 379.16 180.319 379.278 180.615L380.024 182.479C380.243 183.026 380.967 183.141 381.345 182.689L383.256 180.404C383.404 180.227 383.623 180.125 383.854 180.125H420.885C421.557 180.125 421.914 180.919 421.469 181.421L395.521 210.701C395.315 210.933 395.266 211.265 395.397 211.547L408.843 240.403C409.083 240.919 408.706 241.511 408.136 241.511H374.765C374.455 241.511 374.175 241.328 374.051 241.044L372.525 237.548C372.295 237.021 371.593 236.916 371.219 237.353L367.891 241.239C367.743 241.412 367.527 241.511 367.299 241.511H330.235C329.56 241.511 329.204 240.712 329.655 240.211L335.261 233.975C335.409 233.81 335.619 233.716 335.84 233.716H363.712C363.94 233.716 364.156 233.617 364.304 233.444L373.388 222.836C373.762 222.399 374.464 222.504 374.694 223.032L379.154 233.249C379.278 233.533 379.558 233.716 379.868 233.716H395.905C396.475 233.716 396.852 233.125 396.611 232.608L386.172 210.204C386.041 209.922 386.089 209.59 386.295 209.358L404.145 189.216C404.591 188.713 404.234 187.92 403.562 187.92H387.496C387.266 187.92 387.047 188.022 386.898 188.199L378.954 197.699C378.575 198.151 377.851 198.036 377.632 197.488L374.001 188.41C373.882 188.114 373.596 187.92 373.277 187.92H357.71C357.141 187.92 356.764 188.509 357.002 189.026L366.665 209.993C366.795 210.276 366.745 210.609 366.537 210.84L348.749 230.63C348.328 231.097 347.556 230.9 347.41 230.289L345.66 222.908C345.601 222.659 345.668 222.397 345.839 222.207L357.311 209.444C357.519 209.213 357.569 208.88 357.439 208.597L344.827 181.231Z" fill="black"/>
<path d="M293.084 233.716L322.221 187.984H337.378L348.223 233.716H332.87L325.488 195.105H331.498L309.351 233.716H293.084ZM306.542 225.745L312.683 214.639H333.719L335.418 225.745H306.542Z" fill="white"/>
<path fill-rule="evenodd" clip-rule="evenodd" d="M284.131 233.261L278.875 241.51H313.866L318.438 233.54H324.901L326.425 241.51H358.082L356.234 233.716H332.87L331.346 225.745H313.923L309.351 233.716H293.084L322.221 187.984H337.378L347.753 231.736L354.092 224.684L343.541 180.189H317.945L291.161 222.228L294.769 225.68C294.703 225.761 294.636 225.841 294.569 225.921C294.084 226.5 293.589 227.05 293.084 227.568C291.75 228.938 290.347 230.093 288.876 231.035C287.765 231.746 286.616 232.334 285.427 232.801C285.001 232.965 284.569 233.118 284.131 233.261ZM320.294 214.639L326.991 202.964L329.223 214.639H320.294Z" fill="black"/>
<path d="M273.995 234.761C269.291 234.761 265.175 233.912 261.647 232.213C258.119 230.471 255.375 228.076 253.416 225.027C251.499 221.935 250.541 218.363 250.541 214.313C250.541 210.306 251.238 206.626 252.632 203.272C254.069 199.918 256.072 197.022 258.642 194.583C261.212 192.144 264.26 190.271 267.788 188.965C271.316 187.615 275.192 186.939 279.417 186.939C283.816 186.939 287.714 187.723 291.111 189.291C294.508 190.859 297.034 193.124 298.69 196.086L287.583 204.775C286.625 203.076 285.384 201.769 283.86 200.855C282.335 199.897 280.528 199.418 278.437 199.418C276.608 199.418 274.931 199.766 273.407 200.463C271.926 201.116 270.641 202.074 269.552 203.337C268.463 204.557 267.614 206.016 267.004 207.715C266.395 209.413 266.09 211.286 266.09 213.333C266.09 215.119 266.482 216.687 267.266 218.037C268.05 219.387 269.138 220.432 270.532 221.173C271.969 221.913 273.624 222.283 275.497 222.283C277.283 222.283 279.025 221.869 280.724 221.042C282.466 220.214 284.121 218.864 285.689 216.991L294.77 225.68C291.982 229.078 288.868 231.451 285.427 232.801C282.03 234.108 278.219 234.761 273.995 234.761Z" fill="white"/>
<path fill-rule="evenodd" clip-rule="evenodd" d="M258.231 239.22L258.196 239.202C253.513 236.89 249.648 233.581 246.859 229.242L246.824 229.188L246.79 229.133C245.737 227.434 244.899 225.653 244.266 223.804L244.613 222.087H243.741C243.069 219.595 242.746 216.992 242.746 214.313C242.746 214.083 242.748 213.854 242.752 213.625L244.483 204.971H243.875C244.281 203.372 244.799 201.807 245.434 200.281L245.45 200.241L245.467 200.201C245.551 200.004 245.637 199.808 245.725 199.613H248.206L249.511 193.163C250.637 191.655 251.893 190.242 253.276 188.929C256.647 185.729 260.603 183.319 265.042 181.669C269.547 179.951 274.367 179.145 279.417 179.145C284.748 179.145 289.792 180.097 294.378 182.214C299.109 184.398 302.953 187.735 305.494 192.283L308.751 198.111L291.41 211.678L301.174 221.02L293.085 233.716H297.958C295.121 236.465 291.902 238.634 288.275 240.058L288.25 240.067L288.226 240.077C283.804 241.777 279.025 242.556 273.995 242.556C268.353 242.556 263.04 241.535 258.266 239.237L258.231 239.22ZM281.499 209.853L280.794 208.604C280.433 207.965 280.105 207.693 279.849 207.539L279.78 207.497L279.711 207.454C279.619 207.396 279.301 207.212 278.437 207.212C277.623 207.212 277.065 207.361 276.647 207.552L276.6 207.574L276.553 207.594C276.164 207.766 275.812 208.014 275.456 208.427L275.412 208.478L275.367 208.529C275.011 208.927 274.647 209.494 274.341 210.348C274.072 211.096 273.884 212.064 273.884 213.333C273.884 213.654 273.92 213.853 273.946 213.958C273.971 214.057 273.995 214.102 274.006 214.123C274.028 214.159 274.043 214.181 274.052 214.191C274.06 214.201 274.065 214.207 274.068 214.21C274.071 214.213 274.091 214.233 274.147 214.265C274.339 214.355 274.736 214.488 275.497 214.488C276.031 214.488 276.611 214.375 277.31 214.034L277.344 214.017L277.379 214.001C277.875 213.765 278.679 213.222 279.712 211.988L281.499 209.853ZM270.532 221.173C269.138 220.432 268.05 219.387 267.266 218.037C266.482 216.687 266.09 215.119 266.09 213.333C266.09 211.286 266.394 209.413 267.004 207.714C267.614 206.016 268.463 204.557 269.552 203.337C270.641 202.074 271.926 201.116 273.407 200.463C274.931 199.766 276.608 199.418 278.437 199.418C280.528 199.418 282.335 199.897 283.859 200.855C284.426 201.194 284.953 201.588 285.441 202.036C286.267 202.794 286.981 203.707 287.583 204.775L298.689 196.086C297.916 194.701 296.952 193.469 295.798 192.389C295.033 191.674 294.184 191.025 293.252 190.443C292.581 190.024 291.868 189.641 291.111 189.291C287.714 187.723 283.816 186.939 279.417 186.939C275.192 186.939 271.316 187.614 267.788 188.965C264.26 190.271 261.212 192.144 258.642 194.583C256.072 197.022 254.069 199.918 252.632 203.272C251.238 206.626 250.541 210.306 250.541 214.313C250.541 218.363 251.499 221.935 253.416 225.027C255.375 228.076 258.119 230.471 261.647 232.213C265.175 233.912 269.291 234.761 273.995 234.761C278.219 234.761 282.03 234.108 285.427 232.801C286.662 232.317 287.854 231.701 289.005 230.953C289.924 230.355 290.816 229.674 291.681 228.908C292.752 227.961 293.781 226.885 294.77 225.68L285.689 216.991C285.091 217.706 284.48 218.344 283.856 218.907C282.845 219.818 281.801 220.53 280.724 221.042C279.025 221.869 277.283 222.283 275.497 222.283C273.624 222.283 271.969 221.913 270.532 221.173Z" fill="black"/>
<path d="M224.099 204.97H244.482L242.261 216.076H221.878L224.099 204.97ZM221.682 222.087H244.612L242.261 233.716H204.238L213.385 187.984H250.558L248.206 199.613H226.189L221.682 222.087Z" fill="white"/>
<path fill-rule="evenodd" clip-rule="evenodd" d="M248.206 199.613H226.19L225.115 204.97H244.482L242.261 216.076H222.887L221.682 222.087H244.613L242.261 233.716H204.239L213.385 187.984H250.558L248.206 199.613ZM252.887 202.693C252.8 202.884 252.715 203.077 252.631 203.272C252.212 204.28 251.856 205.319 251.563 206.386C251.47 206.724 251.384 207.064 251.304 207.408C250.796 209.584 250.542 211.879 250.541 214.292C250.541 214.299 250.541 214.306 250.541 214.312C250.541 214.35 250.541 214.386 250.541 214.423C250.555 217.606 251.163 220.492 252.365 223.08L248.637 241.51H194.73L206.995 180.189H260.087L256.779 196.546C255.674 197.842 254.701 199.246 253.862 200.757C253.514 201.384 253.189 202.029 252.887 202.693Z" fill="black"/>
<path d="M154.743 234.761C153.567 234.761 152.457 234.696 151.411 234.565C150.366 234.434 149.364 234.217 148.406 233.912L151.673 221.564C152.195 221.695 152.74 221.76 153.306 221.76C154.7 221.76 155.897 221.259 156.899 220.258C157.944 219.256 158.903 217.601 159.774 215.292C160.688 212.941 161.603 209.783 162.518 205.82L166.699 187.984H205.309L196.163 233.716H181.006L188.388 196.673L191.067 199.94H174.408L178.132 196.477L175.322 208.89C174.234 213.812 173.058 217.927 171.795 221.238C170.575 224.548 169.16 227.204 167.548 229.208C165.98 231.168 164.151 232.583 162.06 233.454C160.013 234.325 157.574 234.761 154.743 234.761Z" fill="white"/>
<path fill-rule="evenodd" clip-rule="evenodd" d="M138.973 239.09L141.654 228.954C142.408 228.38 143.128 227.768 143.814 227.117C145.775 225.256 147.394 223.14 148.671 220.77C149.066 220.036 149.429 219.277 149.759 218.494C150.446 216.89 150.969 215.207 151.328 213.443L152.033 213.62C152.17 213.322 152.32 212.965 152.48 212.541L152.494 212.504L152.508 212.467C153.231 210.61 154.047 207.857 154.922 204.067L154.925 204.054L160.519 180.19H183.725L184.406 180.19L185.575 180.189H186.744L189.809 180.19H214.817L202.552 241.511H171.504L172.785 235.083C170.653 237.473 168.088 239.382 165.084 240.639C161.855 242.007 158.337 242.556 154.743 242.556C153.28 242.556 151.844 242.475 150.444 242.3C148.947 242.113 147.477 241.796 146.042 241.34L138.973 239.09ZM162.06 233.454C164.15 232.583 165.98 231.168 167.547 229.208C169.159 227.205 170.574 224.548 171.794 221.238C173.057 217.928 174.233 213.812 175.322 208.89L177.347 199.94H187.737L181.006 233.716H196.162L205.308 187.985H166.698L162.517 205.82C162.365 206.481 162.212 207.119 162.06 207.735C161.297 210.814 160.535 213.333 159.773 215.293C158.902 217.601 157.944 219.256 156.899 220.258C155.897 221.259 154.699 221.76 153.305 221.76C152.739 221.76 152.195 221.695 151.672 221.564L148.406 233.912C148.905 234.071 149.416 234.206 149.939 234.317C150.42 234.42 150.91 234.503 151.411 234.565C152.456 234.696 153.567 234.761 154.743 234.761C155.26 234.761 155.764 234.747 156.256 234.717C158.452 234.587 160.387 234.166 162.06 233.454Z" fill="black"/>
<path d="M123.102 234.761C118.355 234.761 114.239 233.89 110.755 232.148C107.314 230.406 104.636 228.01 102.719 224.962C100.847 221.869 99.9102 218.32 99.9102 214.313C99.9102 210.262 100.607 206.582 102.001 203.272C103.438 199.918 105.441 197.022 108.011 194.583C110.581 192.144 113.63 190.271 117.157 188.965C120.685 187.615 124.54 186.939 128.721 186.939C133.468 186.939 137.562 187.811 141.003 189.553C144.487 191.295 147.166 193.712 149.039 196.804C150.955 199.853 151.913 203.381 151.913 207.388C151.913 211.438 151.195 215.14 149.757 218.494C148.364 221.804 146.382 224.679 143.812 227.118C141.243 229.557 138.194 231.451 134.666 232.801C131.138 234.108 127.284 234.761 123.102 234.761ZM124.409 222.283C126.325 222.283 128.002 221.913 129.439 221.173C130.92 220.432 132.183 219.409 133.229 218.102C134.274 216.795 135.058 215.315 135.581 213.66C136.103 211.961 136.364 210.175 136.364 208.302C136.364 206.517 135.994 204.971 135.254 203.664C134.557 202.314 133.534 201.269 132.183 200.528C130.877 199.788 129.287 199.418 127.414 199.418C125.541 199.418 123.865 199.788 122.384 200.528C120.903 201.269 119.64 202.292 118.595 203.599C117.549 204.905 116.765 206.408 116.243 208.106C115.72 209.762 115.459 211.525 115.459 213.398C115.459 215.14 115.807 216.687 116.504 218.037C117.244 219.387 118.268 220.432 119.575 221.173C120.925 221.913 122.536 222.283 124.409 222.283Z" fill="white"/>
<path fill-rule="evenodd" clip-rule="evenodd" d="M107.251 239.111L107.234 239.102C102.624 236.768 98.8424 233.441 96.1199 229.11L96.0854 229.055L96.0519 229C93.3634 224.561 92.1152 219.585 92.1152 214.313C92.1152 209.356 92.9714 204.63 94.8166 200.247L94.8263 200.224L94.8361 200.201C95.0323 199.744 95.2371 199.292 95.4507 198.846L104.284 187.985H103.683C106.819 185.251 110.419 183.153 114.41 181.67C118.906 179.955 123.703 179.145 128.721 179.145C134.407 179.145 139.755 180.188 144.506 182.589C149.173 184.926 152.983 188.294 155.672 192.71C158.432 197.125 159.708 202.106 159.708 207.388C159.708 211.471 159.112 215.402 157.856 219.121C157.545 219.564 157.225 219.943 156.897 220.258C156.575 220.58 156.233 220.85 155.871 221.068C155.856 221.077 155.841 221.086 155.826 221.095C155.072 221.539 154.231 221.761 153.304 221.761C152.738 221.761 152.193 221.695 151.671 221.565L148.553 233.35C145.33 236.258 141.603 238.493 137.452 240.081L137.413 240.096L137.373 240.111C132.888 241.772 128.105 242.556 123.102 242.556C117.406 242.556 112.047 241.509 107.269 239.12L107.251 239.111ZM149.757 218.494C151.194 215.14 151.913 211.438 151.913 207.388C151.913 203.381 150.955 199.853 149.039 196.804C147.166 193.712 144.487 191.295 141.003 189.553C137.562 187.81 133.468 186.939 128.721 186.939C124.54 186.939 120.685 187.614 117.157 188.965C113.629 190.271 110.581 192.144 108.011 194.583C105.441 197.022 103.438 199.918 102.001 203.272C100.607 206.582 99.9101 210.262 99.9101 214.313C99.9101 218.32 100.846 221.869 102.719 224.962C104.636 228.01 107.314 230.406 110.755 232.148C114.239 233.89 118.355 234.761 123.102 234.761C127.284 234.761 131.138 234.108 134.666 232.801C138.194 231.451 141.242 229.557 143.812 227.118C146.382 224.679 148.363 221.804 149.757 218.494ZM116.243 208.106C115.72 209.761 115.459 211.525 115.459 213.398C115.459 215.14 115.807 216.687 116.504 218.037C117.244 219.387 118.268 220.432 119.575 221.173C120.925 221.913 122.536 222.283 124.409 222.283C126.325 222.283 128.002 221.913 129.439 221.173C130.92 220.432 132.183 219.409 133.229 218.102C134.274 216.795 135.058 215.315 135.58 213.66C136.103 211.961 136.364 210.175 136.364 208.302C136.364 206.517 135.994 204.971 135.254 203.664C134.557 202.314 133.533 201.269 132.183 200.528C130.877 199.788 129.287 199.418 127.414 199.418C125.541 199.418 123.865 199.788 122.384 200.528C120.903 201.269 119.64 202.292 118.595 203.599C117.549 204.905 116.765 206.408 116.243 208.106ZM123.388 214.365C123.423 214.377 123.473 214.393 123.541 214.409C123.705 214.446 123.984 214.488 124.409 214.488C125.313 214.488 125.724 214.318 125.87 214.243L125.911 214.222L125.953 214.201C126.414 213.97 126.793 213.668 127.142 213.233C127.56 212.71 127.896 212.099 128.139 211.338C128.416 210.429 128.57 209.428 128.57 208.302C128.57 207.947 128.533 207.729 128.506 207.619C128.49 207.549 128.476 207.515 128.471 207.505L128.397 207.374L128.373 207.329L128.359 207.321C128.298 207.297 128.025 207.212 127.414 207.212C126.592 207.212 126.134 207.368 125.87 207.5C125.409 207.731 125.03 208.033 124.681 208.468C124.286 208.962 123.945 209.578 123.693 210.399L123.684 210.426L123.676 210.454C123.411 211.292 123.254 212.259 123.254 213.398C123.254 213.924 123.331 214.217 123.388 214.365Z" fill="black"/>
<path d="M49.0156 233.716L58.1619 187.984H73.5799L64.4336 233.716H49.0156ZM63.323 217.187L65.7402 205.036H83.0528L80.6355 217.187H63.323ZM78.349 233.716L71.1626 212.287L83.8367 205.101L94.6816 233.716H78.349ZM84.3594 212.483L69.464 211.046L87.1686 187.984H104.285L84.3594 212.483Z" fill="white"/>
<path fill-rule="evenodd" clip-rule="evenodd" d="M39.5078 241.51L51.772 180.189H83.0885L83.0048 180.608L83.3261 180.189H120.673L110.871 192.241C110.63 192.41 110.393 192.584 110.159 192.761C109.41 193.328 108.694 193.936 108.012 194.583C105.512 196.956 103.548 199.762 102.12 203.001L94.7918 212.011L105.972 241.51H72.742L71.5407 237.928L70.8243 241.51H39.5078ZM78.3494 233.716H94.682L85.9118 210.575L104.286 187.984H87.169L74.0787 205.036H70.17L73.5803 187.984H58.1623L49.016 233.716H64.434L67.7397 217.187H72.8063L78.3494 233.716Z" fill="black"/>
<defs>
<clipPath id="clip0_2436_1050">
<rect width="429.107" height="230.016" fill="white" transform="translate(32.4531 0.742188)"/>
</clipPath>
</defs>
</svg>
